<?xml version="1.0" encoding="UTF-8" standalone="no"?>
<svg
   xmlns:dc="http://purl.org/dc/elements/1.1/"
   xmlns:cc="http://creativecommons.org/ns#"
   xmlns:rdf="http://www.w3.org/1999/02/22-rdf-syntax-ns#"
   xmlns:svg="http://www.w3.org/2000/svg"
   xmlns="http://www.w3.org/2000/svg"
   viewBox="0 0 92.160004 16.559999"
   id="svg14"
   height="16.559999"
   width="92.160004"
   version="1.1">
  <metadata
     id="metadata20">
    <rdf:RDF>
      <cc:Work
         rdf:about="">
        <dc:format>image/svg+xml</dc:format>
        <dc:type
           rdf:resource="http://purl.org/dc/dcmitype/StillImage" />
      </cc:Work>
    </rdf:RDF>
  </metadata>
  <defs
     id="defs18" />
  <g
     id="Layer1000">
    <g
       id="Layer1001">
      <path
         id="path2"
         style="fill:#1b1918;fill-rule:evenodd"
         d="m 15.8593,9.3607 c -0.3484,0.163 -0.707,0.4111 -1.0483,0.5272 -0.0509,0.0173 0.9203,0.2825 1.0711,0.6824 0.4478,1.1885 2.1338,1.4159 2.9402,1.8611 1.1416,0.6301 0.9579,0.5617 0.2279,-0.4963 -0.3182,-0.4613 -0.2734,-1.0146 -0.2734,-1.6749 0,-0.7571 1.4162,-0.1769 1.3674,-0.8066 -0.0031,-0.0403 -0.4723,-0.2481 -0.5241,-0.2481 -0.0969,0 2.1492,-1.267 1.0255,-1.2406 -1.3419,0.0315 -0.5563,0.4289 0.0229,-1.1477 0.3927,-1.0685 -1.7703,0.5393 -2.1083,0.8841 -0.5064,0.5169 -0.3691,0.8064 -0.5811,1.3338 -0.527,1.3104 -0.17,-0.0157 -2.1198,0.3256 z" />
      <path
         id="path4"
         style="fill:#1b1918;fill-rule:evenodd"
         d="m 5.6647,0.3889 c 0,0 -0.0514,-0.0859 -0.223,-0.06 -0.1716,0.0257 -0.532,0.0257 -0.6263,0.0257 -0.0943,0 -0.3089,-0.0516 -0.1287,-0.1118 0.1803,-0.06 0.5919,-0.103 0.695,-0.1203 0.103,-0.0172 1.4242,-0.1718 1.613,-0.1288 0.1887,0.0429 0.2916,0.1375 0.2916,0.1375 0,0 1.1239,-0.0173 1.2612,-0.0173 0.1373,0 0.4032,-0.0257 0.532,-0.0516 0.1287,-0.0257 0.3432,-0.0602 0.5232,-0.0602 0.1805,0 1.6989,0.0259 2.1451,0.1548 0.4461,0.1291 0.7809,0.5502 0.8836,0.7134 0.103,0.1634 0.4119,0.55 0.4205,0.7478 0.0086,0.1977 0.0427,0.2407 0.2145,0.5416 0.1716,0.3007 1.0858,2.2692 1.2404,2.5958 0.1543,0.3266 0.7037,1.4783 0.9093,1.5642 0.206,0.0862 0.6351,0.4987 0.6351,0.4987 0,0 -0.3603,-0.6017 -0.2232,-0.6705 0.1372,-0.0687 0.3432,0.3782 0.5148,0.6532 0.1718,0.2752 0.652,0.7909 0.6863,0.9628 0.0343,0.1718 0,0.3439 -0.1716,0.3439 -0.1716,0 -0.892,0.1718 -1.1495,0.1718 -0.2573,0 -1.2012,-0.1375 -1.2012,-0.1375 0,0 -0.3432,0.9109 -0.3432,1.5298 0,0.6189 -0.1716,1.2208 -0.2232,1.4612 -0.0514,0.2407 -0.0686,0.8769 -0.0686,0.8769 0,0 0.1716,-0.1375 0.3434,-0.0516 0.1714,0.0859 0.2745,0.2407 0.0341,0.3094 -0.2402,0.0688 -0.4975,0.6534 -0.6521,0.8941 -0.1543,0.2405 -0.3432,0.2921 -0.3602,0.2062 -0.0173,-0.086 0.103,-0.3783 -0.0343,-0.361 -0.1373,0.0171 -1.4757,0.8939 -1.5273,1.0142 -0.0513,0.1202 -0.2232,0.2922 -0.3945,0.5673 -0.1716,0.275 -0.4635,0.6189 -0.5664,0.5673 -0.103,-0.0516 -0.0857,-0.4125 -0.0857,-0.4125 l -0.5664,0.2234 c 0,0 -0.3602,0.2234 -0.5491,0.2234 -0.1886,0 -1.3783,-0.5561 -1.7042,-0.5218 -0.354,0.0371 0.4417,1.8112 -0.6264,1.8112 -0.3262,0 -0.6378,0.1718 -0.7751,0.0516 C 6.2703,16.4109 5.8585,15.7918 5.9271,15.3793 5.9958,14.9668 5.8585,14.2963 5.8242,14.1415 5.7899,13.9869 5.8928,13.9354 5.6183,13.7635 5.3437,13.5915 4.8803,13.4369 4.606,13.2821 4.3312,13.1274 3.8853,13.0585 3.6791,12.9039 3.4732,12.7491 2.9414,12.8007 3.0443,12.6632 c 0.103,-0.1375 0.4805,-0.1891 0.6348,-0.1891 0.1546,0 0.3948,-0.2234 0.2575,-0.2922 -0.1373,-0.0687 -0.3432,-0.5673 -0.3432,-0.5673 0,0 0.1889,-1.719 0.0857,-2.1661 C 3.5762,9.0017 3.5764,8.5376 3.3702,8.3139 3.1643,8.0905 2.3237,8.0732 2.1005,7.8841 1.8775,7.695 0.7793,7.6779 0.4705,7.5404 0.1616,7.4027 -0.0786,7.2998 0.0243,7.2309 0.1273,7.1622 0.5048,7.0763 0.6764,7.1107 0.848,7.145 0.745,6.7668 0.8993,6.5777 1.0539,6.3886 1.8089,5.6149 1.9119,5.5117 2.0148,5.4087 2.8041,4.9962 2.5809,4.979 2.358,4.9617 2.0491,4.996 2.2034,4.8758 2.358,4.7555 2.8384,4.7212 2.9414,4.4289 3.0443,4.1366 3.765,3.3459 3.9882,3.105 4.2112,2.8645 4.4857,2.3831 4.3828,2.3315 4.2798,2.2799 4.0223,2.2456 4.1596,2.1597 4.2969,2.0738 4.6401,2.0736 4.7432,1.8158 4.846,1.5581 5.0519,1.2658 5.0176,1.1799 4.9832,1.0937 5.2751,0.8017 5.3094,0.6812 5.3437,0.5607 5.6647,0.3889 5.6647,0.3889 Z m 0.2059,0.0946 c 0,0 1.2955,-0.2407 1.433,-0.2321 0.1373,0.0086 1.2869,0.0859 1.2869,0.0859 0,0 0.8836,-0.0513 0.9522,-0.0513 0.0687,0 0.9266,-0.0087 0.9866,-0.0087 0.06,0 1.0726,0.0171 1.2614,0.1546 0.1887,0.1375 0.3259,0.1977 0.4116,0.447 0.0859,0.2494 0.8118,2.1747 1.2063,2.5013 0.3948,0.3266 0.7034,1.0487 0.858,1.2378 0.1543,0.1891 0.4632,1.083 0.5318,1.2205 0.0686,0.1375 0.3605,0.6017 0.3605,0.7392 0,0.1375 0.1543,0.4984 0.3088,0.7048 0.1544,0.2063 -0.1372,0.3266 -0.2575,0.3266 -0.12,0 -0.6004,0.1204 -0.6004,0.1204 0,0 -0.1544,-0.3782 -0.1373,-0.4986 C 14.4895,7.1107 14.6611,6.4918 14.5068,6.337 14.3522,6.1822 14.0779,6.0792 13.889,5.7869 13.7002,5.4947 13.0824,3.913 12.8595,3.535 12.6366,3.1568 12.3618,2.6927 12.2588,2.4863 12.1559,2.2799 11.8986,1.6954 11.7786,1.5065 11.6584,1.3174 11.4695,1.0594 11.3495,1.0424 c -0.12,-0.0173 -0.2573,0.017 -0.2573,0.1545 0,0.1375 -0.2059,0.2237 -0.4291,0.3266 C 10.4399,1.6267 10.114,2.2629 10.0454,2.4174 9.9767,2.5722 9.2047,4.5491 9.0844,4.8415 8.9642,5.1337 8.5183,5.9933 8.2781,6.3197 8.0376,6.6463 7.8319,7.4029 7.5744,7.5748 7.3169,7.7466 6.4419,7.8841 6.2017,7.8325 5.9615,7.7809 5.1378,7.5748 5.0176,7.4888 4.8976,7.4027 4.3657,7.2482 4.3657,7.2482 c 0,0 -0.6523,-0.2578 -1.0298,-0.2578 C 2.9584,6.9904 2.238,6.887 2.0321,6.7495 1.8259,6.612 1.5687,6.5261 1.6373,6.337 1.7059,6.1479 2.7525,4.9101 2.993,4.7212 3.233,4.5319 3.7478,3.6209 3.9366,3.4834 4.1253,3.3459 4.8117,2.2456 4.9319,2.177 5.5246,1.837 4.7806,1.8279 5.4637,0.8014 5.5324,0.6982 5.8706,0.4835 5.8706,0.4835 Z m 5.2247,2.0392 c 0,0 0.9266,1.75 1.0638,2.1273 0.1373,0.3775 0.7891,1.2012 0.7891,1.2012 l 0.7207,0.6861 c 0,0 0.3086,0.755 0.24,1.0295 -0.0684,0.2743 -0.3773,1.1323 -0.3086,1.3725 0.0686,0.2403 -0.4462,3.0196 -0.5148,3.1912 -0.0686,0.1716 -0.7029,0.6873 -0.7973,0.7648 -0.0943,0.0773 -0.5061,0.2577 -0.5661,0.3523 -0.06,0.0948 -0.2062,0.2666 -0.3005,0.2923 -0.0943,0.0259 -0.8493,0.49 -0.9952,0.49 -0.1457,0 -0.8237,-0.1116 -0.935,-0.3695 C 9.3798,13.4024 8.9166,12.7235 8.8393,12.4828 8.762,12.2421 8.5818,11.5286 8.5561,11.3568 8.5305,11.1847 8.5218,10.9956 8.3589,11.0559 8.1959,11.1161 8.11,11.2106 8.11,11.3052 c 0,0.0946 0.2745,1.0571 0.2916,1.2205 0.0173,0.1632 0.1545,0.6017 0.1632,0.6705 0.0084,0.0687 0.017,0.3267 -0.0516,0.3696 -0.0687,0.043 -0.3946,0.0516 -0.6091,0.0516 -0.2146,0 -1.8789,-0.5246 -1.9648,-0.5846 C 5.8536,12.9726 5.4674,12.8694 5.3988,12.8007 5.3302,12.7319 5.2188,12.6719 5.1156,12.56 5.0126,12.4482 4.9183,11.4427 4.9097,11.2879 4.9013,11.1331 4.764,10.5145 4.6697,10.437 4.5751,10.3597 4.4636,10.3338 4.4808,10.4456 c 0.0171,0.1118 0.1116,0.9026 0.1287,1.0744 0.0172,0.1721 0.1288,0.6878 0.0429,0.7307 -0.0859,0.043 -0.3602,-0.2579 -0.3602,-0.4039 0,-0.1463 -0.2013,-1.2637 -0.0983,-1.573 C 4.2969,9.9642 4.2282,8.7953 4.1769,8.6578 4.1253,8.5203 4.1082,8.1937 4.1082,8.1937 c 0,0 0.3089,0.5157 0.3432,0.6705 C 4.4857,9.0187 4.3141,9.4655 4.4685,9.4485 4.623,9.4315 4.726,9.1219 4.7432,8.8642 4.7603,8.6062 4.6573,8.2796 4.6916,8.1937 4.726,8.1078 4.9832,8.1594 5.0862,8.228 c 0.1032,0.0689 1.2185,0.0346 1.39,0.1718 0.1716,0.1375 0.7894,0.3439 0.8923,0.3439 0.103,0 0.3089,-0.2234 0.3432,-0.4811 C 7.746,8.0046 8.8785,6.1995 9.0674,5.8728 9.256,5.5462 9.8051,4.2396 10.0454,3.9475 10.2856,3.6552 10.6631,2.9504 10.7661,2.8472 10.869,2.744 11.0953,2.5227 11.0953,2.5227 Z m 1.2151,6.6165 c 0,0 -0.0686,0.2923 -0.0686,0.6359 0,0.3439 -0.0857,0.791 -0.2746,1.066 -0.1886,0.275 -0.1716,0.4641 -0.7207,0.4641 -0.5491,0 -0.8923,-0.1205 -1.0123,-0.3439 C 10.114,10.7379 9.9597,9.861 10.0797,9.5687 c 0.12,-0.292 0.5661,-1.0314 0.9093,-1.0657 0.3432,-0.0343 0.7896,-0.0686 0.8923,0.0343 0.103,0.1032 0.4291,0.6019 0.4291,0.6019 z m -5.8342,4.418 c 0,0 0.9266,0.1204 1.1669,0.1891 0.2402,0.0688 0.6863,0.3609 0.6863,0.3609 l 0.2746,0.1375 c 0,0 0.0686,0.2579 -0.4805,0.1204 C 7.5744,14.2274 7.111,13.8838 6.9737,13.8665 6.8365,13.8494 6.4762,13.5572 6.4762,13.5572 Z m 7.224,-1.2033 c 0,0 -0.3259,0.3436 -0.4118,0.2577 -0.0857,-0.0859 0.1375,-0.3954 0.1375,-0.3954 z m 2.4539,-4.7791 c 0,0 0.3605,0.3093 0.4632,0.3093 0.103,0 0.0859,-0.3093 0,-0.3437 -0.0857,-0.0345 -0.4632,0.0344 -0.4632,0.0344 z M 1.9842,7.4975 c 0.0687,0 1.1925,0.1375 1.2525,0.1632 0.06,0.0259 0.3862,0.1288 0.3862,0.1804 0,0.0516 0,0.2494 -0.1459,0.1805 C 3.3311,7.953 2.9365,7.7982 2.7392,7.7982 2.5417,7.7982 2.1729,7.7466 2.1301,7.695 2.0872,7.6434 1.9842,7.4975 1.9842,7.4975 Z" />
      <path
         id="path6"
         style="fill:#ffd400;fill-rule:evenodd"
         d="m 5.8706,0.4835 c 0,0 -0.3382,0.215 -0.4069,0.3179 C 4.7804,1.8284 5.5253,1.837 4.9319,2.1767 4.8117,2.2456 4.1253,3.3459 3.9366,3.4834 3.7478,3.6209 3.233,4.5319 2.9928,4.721 2.7525,4.9101 1.7059,6.1479 1.6373,6.337 1.5687,6.5261 1.8259,6.612 2.0321,6.7495 2.238,6.887 2.9584,6.9902 3.3359,6.9902 c 0.3775,0 1.0298,0.258 1.0298,0.258 0,0 0.5319,0.1545 0.6519,0.2406 0.1202,0.086 0.9439,0.2921 1.1841,0.3437 C 6.4419,7.8841 7.3169,7.7466 7.5744,7.5748 7.8319,7.4029 8.0376,6.6466 8.2781,6.3197 8.5183,5.9931 8.9642,5.1337 9.0844,4.8415 9.2047,4.5491 9.9767,2.5722 10.0454,2.4174 10.114,2.2629 10.4399,1.6267 10.6631,1.5235 10.8863,1.4206 11.092,1.3344 11.092,1.1969 c 0,-0.1375 0.1373,-0.1718 0.2575,-0.1548 0.12,0.0173 0.3089,0.2753 0.4289,0.4644 0.1202,0.1889 0.3775,0.7734 0.4804,0.9798 0.1032,0.2064 0.3778,0.6705 0.6007,1.0487 0.2229,0.378 0.8407,1.9597 1.0295,2.2519 0.1889,0.2923 0.4632,0.3953 0.6178,0.5501 0.1543,0.1548 -0.0173,0.7737 -0.0343,0.8939 -0.0173,0.1204 0.1373,0.4986 0.1373,0.4986 0,0 0.4804,-0.1204 0.6004,-0.1204 0.1203,0 0.4119,-0.1203 0.2575,-0.3266 C 15.3134,7.0761 15.1589,6.7152 15.1589,6.5777 15.1589,6.4402 14.867,5.976 14.7984,5.8385 14.7298,5.701 14.4209,4.8071 14.2666,4.618 14.1122,4.4289 13.8034,3.7068 13.4086,3.3802 13.0141,3.0536 12.2882,1.1283 12.2026,0.8789 12.1166,0.6296 11.9794,0.5694 11.7907,0.4319 11.6019,0.2944 10.5896,0.2773 10.5293,0.2773 L 9.5427,0.286 c -0.0686,0 -0.9522,0.0513 -0.9522,0.0513 0,0 -1.1496,-0.0773 -1.2871,-0.0859 C 7.1661,0.243 5.8706,0.4835 5.8706,0.4835 Z" />
      <path
         id="path8"
         style="fill:#ffffff;fill-rule:evenodd"
         d="M 9.0674,5.8728 C 8.8785,6.1995 7.746,8.0046 7.7117,8.2623 7.6774,8.5203 7.4715,8.7437 7.3685,8.7437 7.2656,8.7437 6.6478,8.5373 6.4762,8.3998 6.3047,8.2626 5.1894,8.2969 5.0862,8.228 4.9832,8.1594 4.726,8.1078 4.6916,8.1937 4.6573,8.2796 4.7603,8.6062 4.743,8.8642 4.726,9.1219 4.623,9.4315 4.4685,9.4485 4.3141,9.4655 4.4857,9.0187 4.4514,8.8642 4.4171,8.7094 4.1082,8.1937 4.1082,8.1937 c 0,0 0.0171,0.3266 0.0687,0.4641 0.0513,0.1375 0.12,1.3064 0.017,1.616 -0.103,0.3093 0.0983,1.4267 0.0983,1.5728 0,0.1462 0.2743,0.4471 0.3602,0.4041 C 4.7383,12.2078 4.6267,11.6921 4.6095,11.52 4.5924,11.3482 4.4979,10.5574 4.4808,10.4456 4.4636,10.3338 4.5751,10.3597 4.6697,10.437 c 0.0943,0.0775 0.2316,0.6961 0.24,0.8509 0.0086,0.1548 0.1029,1.1603 0.2059,1.2721 0.1032,0.1119 0.2146,0.1721 0.2832,0.2407 0.0686,0.0687 0.4548,0.1719 0.5405,0.2321 0.0859,0.0602 1.7502,0.5846 1.9648,0.5846 0.2145,0 0.5404,-0.0086 0.6091,-0.0516 C 8.5818,13.5229 8.5734,13.2649 8.5648,13.1962 8.5561,13.1274 8.4189,12.6889 8.4016,12.5257 8.3845,12.3623 8.11,11.3998 8.11,11.3052 c 0,-0.0946 0.0859,-0.1891 0.2489,-0.2493 0.1629,-0.0603 0.1716,0.1288 0.1972,0.3009 0.0257,0.1718 0.2059,0.8853 0.2832,1.126 0.0773,0.2407 0.5405,0.9196 0.6521,1.1776 0.1113,0.2579 0.7893,0.3695 0.935,0.3695 0.1459,0 0.9009,-0.4641 0.9952,-0.49 0.0943,-0.0257 0.2403,-0.1975 0.3005,-0.2923 0.06,-0.0946 0.4718,-0.275 0.5661,-0.3523 0.0944,-0.0773 0.7287,-0.5932 0.7973,-0.7648 0.0686,-0.1716 0.5834,-2.9509 0.5148,-3.1912 C 13.5316,8.6991 13.8405,7.8411 13.9091,7.5668 13.9778,7.2923 13.6689,6.5373 13.6689,6.5373 L 12.9482,5.8512 c 0,0 -0.6518,-0.8237 -0.7891,-1.2009 -0.1372,-0.3776 -1.0638,-2.1276 -1.0638,-2.1276 0,0 -0.2263,0.2213 -0.3292,0.3245 -0.103,0.1032 -0.4805,0.808 -0.7207,1.1003 C 9.8051,4.2396 9.256,5.5462 9.0674,5.8728 Z m 1.0123,3.6959 c 0.12,-0.292 0.5661,-1.0314 0.9093,-1.0657 0.3432,-0.0343 0.7896,-0.0686 0.8923,0.0343 0.103,0.1032 0.4291,0.6019 0.4291,0.6019 0,0 -0.0686,0.2923 -0.0686,0.6359 0,0.3439 -0.0857,0.791 -0.2746,1.066 -0.1888,0.275 -0.1716,0.4641 -0.7207,0.4641 -0.5491,0 -0.8923,-0.1205 -1.0123,-0.3439 C 10.114,10.7379 9.9595,9.861 10.0797,9.5687 Z" />
    </g>
    <path
       id="path11"
       style="fill:#1b1918;fill-rule:evenodd"
       d="M 28.3324,4.0352 H 27.1907 27.0465 L 27.0109,3.8953 C 26.9733,3.7469 26.9248,3.6194 26.8677,3.5144 26.8137,3.4159 26.7506,3.3349 26.6794,3.2727 26.6041,3.2122 26.5169,3.167 26.4182,3.1367 26.3143,3.105 26.1941,3.089 26.0581,3.089 c -0.2003,0 -0.377,0.0357 -0.5293,0.1065 l -3e-4,-5e-4 c -0.1503,0.0701 -0.2798,0.1758 -0.388,0.3165 v 7e-4 c -0.1113,0.1445 -0.1955,0.3241 -0.2526,0.5373 -0.059,0.2205 -0.0887,0.4773 -0.0887,0.7697 0,0.3688 0.0519,0.6749 0.1556,0.9188 l 0.0023,0.0045 c 0.0482,0.1219 0.107,0.2287 0.1755,0.3196 0.0669,0.0889 0.1445,0.1638 0.2313,0.2241 l -2e-4,4e-4 c 0.087,0.0601 0.1822,0.1057 0.2846,0.1362 0.1039,0.0306 0.2176,0.0462 0.3412,0.0462 0.2567,0 0.4678,-0.0715 0.6324,-0.2136 0.1718,-0.1484 0.3022,-0.3781 0.3905,-0.6882 l 0.0382,-0.1349 h 0.1401 1.1417 0.2137 L 28.5157,5.644 c -0.0188,0.1302 -0.0414,0.251 -0.0679,0.3604 h -2e-4 c -0.0267,0.1113 -0.0574,0.2097 -0.0911,0.2941 h 2e-4 c -0.0331,0.0862 -0.0755,0.176 -0.1271,0.2686 -0.0494,0.089 -0.1072,0.1794 -0.1731,0.2705 l -7e-4,0.0015 c -0.2466,0.3357 -0.5453,0.589 -0.895,0.7578 -0.3478,0.1682 -0.7439,0.2527 -1.1869,0.2527 -0.4145,0 -0.7873,-0.0698 -1.1185,-0.2086 C 24.5211,7.5008 24.2304,7.29 23.9838,7.0099 l 6e-4,-4e-4 C 23.7382,6.7337 23.5531,6.4114 23.4304,6.0436 23.3087,5.679 23.2477,5.2713 23.2477,4.8205 c 0,-0.621 0.1126,-1.1645 0.3373,-1.6318 0.1141,-0.2375 0.2514,-0.4469 0.4109,-0.6282 0.1608,-0.1825 0.3464,-0.3387 0.5556,-0.468 l 6e-4,-8e-4 C 24.7599,1.9643 24.986,1.868 25.2296,1.804 c 0.2421,-0.0637 0.5005,-0.0956 0.7742,-0.0956 0.3422,0 0.6578,0.0473 0.9461,0.1412 0.2905,0.0946 0.5528,0.2375 0.7858,0.4276 l 0.003,0.0021 c 0.2319,0.1955 0.413,0.4244 0.5428,0.6851 0.1292,0.2588 0.2078,0.5491 0.2356,0.8693 l 0.0175,0.2015 z m 0.6639,-2.218 h 4.4552 0.1855 V 2.0027 3.0045 3.19 H 33.4515 31.9919 V 7.5631 7.7486 H 31.8064 30.6649 30.4794 V 7.5631 3.19 H 28.9963 28.8108 V 3.0045 2.0027 1.8172 Z m 5.5529,0 h 2.2897 c 0.2905,0 0.5448,0.0254 0.7613,0.076 0.2275,0.0531 0.416,0.1353 0.5638,0.2456 l -4e-4,4e-4 c 0.2522,0.1816 0.4419,0.4111 0.569,0.6877 0.1253,0.2729 0.1881,0.5888 0.1881,0.9463 0,0.3555 -0.0597,0.6716 -0.179,0.9471 -0.1215,0.2801 -0.3031,0.5157 -0.5445,0.7053 l -0.0039,0.0032 -0.0098,0.0063 c -0.0937,0.061 -0.1896,0.1124 -0.2866,0.1541 h -8e-4 c -0.1,0.0429 -0.2024,0.0768 -0.3064,0.1015 v -2e-4 c -0.1052,0.028 -0.2256,0.0496 -0.3601,0.064 -0.1343,0.0143 -0.2803,0.0216 -0.436,0.0216 h -0.9172 v 1.787 0.1855 H 35.6909 34.5492 34.3637 V 7.5631 2.0027 1.8172 Z M 35.8764,3.19 v 1.2132 h 0.7089 c 0.3081,0 0.52,-0.0458 0.6341,-0.1372 v -8e-4 C 37.2689,4.2259 37.3069,4.1723 37.3327,4.1053 37.362,4.0294 37.3769,3.9339 37.3769,3.82 c 0,-0.1214 -0.0154,-0.2234 -0.0453,-0.3059 h -2e-4 C 37.3045,3.4402 37.2652,3.3814 37.2144,3.338 l -8e-4,-7e-4 C 37.1611,3.292 37.0865,3.2566 36.9908,3.2317 36.8841,3.2041 36.7511,3.19 36.5931,3.19 Z m 3.5185,1.6162 c 0,-0.6137 0.1182,-1.1543 0.3542,-1.6237 l 3e-4,2e-4 c 0.116,-0.2322 0.259,-0.44 0.4275,-0.6222 0.1684,-0.182 0.3632,-0.3386 0.5829,-0.4693 L 40.762,2.0897 c 0.2209,-0.1275 0.4571,-0.2234 0.7074,-0.2865 0.2501,-0.063 0.5155,-0.0948 0.7955,-0.0948 0.2042,0 0.4027,0.0182 0.5944,0.054 0.1898,0.0356 0.3727,0.0894 0.5482,0.1611 h 7e-4 c 0.1757,0.0725 0.3382,0.1597 0.4864,0.2612 0.1485,0.1014 0.285,0.2192 0.4091,0.3532 0.123,0.1315 0.2326,0.2762 0.328,0.4326 0.0954,0.1568 0.1783,0.3276 0.2477,0.5109 l 7e-4,0.003 c 0.0659,0.184 0.1156,0.3782 0.1482,0.5821 0.0329,0.2047 0.0496,0.4167 0.0496,0.6362 0,0.6005 -0.1152,1.1351 -0.3451,1.606 l -4e-4,-2e-4 c -0.1157,0.2393 -0.2567,0.4538 -0.422,0.6419 -0.1659,0.1888 -0.3568,0.3517 -0.5712,0.4871 -0.2167,0.1368 -0.4493,0.2403 -0.6965,0.3089 -0.2465,0.0685 -0.506,0.1032 -0.7778,0.1032 -0.2796,0 -0.5449,-0.0331 -0.795,-0.0986 h -7e-4 C 41.218,7.6852 40.9835,7.5863 40.7661,7.4552 l 2e-4,-2e-4 C 40.5487,7.3279 40.3542,7.1745 40.1845,6.9953 l -4e-4,3e-4 C 40.0144,6.8164 39.8693,6.6114 39.7498,6.3808 39.6316,6.1528 39.5426,5.9057 39.4834,5.641 39.4246,5.3779 39.3949,5.0993 39.3949,4.8062 Z m 1.5515,-0.0893 c 0,0.2542 0.0276,0.4876 0.0826,0.6994 0.0547,0.2113 0.1365,0.4039 0.2443,0.5761 h 7e-4 c 0.0989,0.1589 0.226,0.2777 0.3805,0.3558 0.159,0.0803 0.3519,0.1208 0.5779,0.1208 0.2007,0 0.3786,-0.0379 0.5334,-0.113 0.1541,-0.0748 0.2896,-0.1885 0.4055,-0.3404 l 2e-4,10e-5 C 43.2882,5.8595 43.3765,5.6762 43.4355,5.4666 43.496,5.252 43.5264,5.0078 43.5264,4.7349 43.5264,4.4646 43.4967,4.225 43.4373,4.0166 43.38,3.8153 43.295,3.643 43.1836,3.5009 l -2e-4,2e-4 C 43.0706,3.3636 42.9376,3.2605 42.7847,3.1926 42.6302,3.1236 42.4511,3.089 42.248,3.089 c -0.1282,0 -0.2469,0.0158 -0.3556,0.0472 v 7e-4 C 41.782,3.1684 41.679,3.2158 41.5846,3.2779 l -8e-4,7e-4 C 41.4887,3.3402 41.4037,3.4159 41.3302,3.504 v 8e-4 C 41.2553,3.5946 41.1909,3.6986 41.138,3.8157 41.0816,3.9409 41.0373,4.079 41.0054,4.2289 40.9733,4.3804 40.9535,4.5433 40.946,4.7169 Z m 9.5077,3.0317 H 49.3746 49.1891 V 7.5631 4.3572 L 47.2113,7.6581 47.157,7.7486 H 47.0527 45.981 45.7954 V 7.5631 2.0027 1.8172 h 0.1856 1.0717 0.1855 v 0.1855 3.1947 l 1.9279,-3.2882 0.0538,-0.092 h 0.1056 1.1286 0.1856 v 0.1855 5.5604 0.1855 z m 0.8104,-5.9314 h 4.4552 0.1855 V 2.0027 3.0045 3.19 H 55.7197 54.26 V 7.5631 7.7486 H 54.0745 52.933 52.7475 V 7.5631 3.19 H 51.2645 51.079 V 3.0045 2.0027 1.8172 Z m 5.5529,0 h 4.0008 0.1856 V 2.0027 3.0045 3.19 h -0.1856 -2.6736 v 0.8172 h 2.4315 0.1856 v 0.1855 0.9396 0.1855 h -0.1856 -2.4315 v 1.058 h 2.7914 0.1856 V 6.5613 7.5631 7.7486 H 60.936 56.8174 56.6319 V 7.5631 2.0027 1.8172 Z m 5.2184,1.6299 c 0,-0.2304 0.0503,-0.4452 0.1501,-0.6432 0.0983,-0.1946 0.2445,-0.371 0.4378,-0.528 L 62.6252,2.2744 C 62.8177,2.1212 63.0379,2.006 63.2862,1.9298 63.5307,1.8546 63.8,1.8172 64.0943,1.8172 h 2.6158 0.1855 V 2.0027 7.5631 7.7486 H 66.7101 65.5684 65.3829 V 7.5631 3.1744 h -1.1903 c -0.2356,0 -0.4061,0.0399 -0.5104,0.1189 v 7e-4 c -0.089,0.0676 -0.1337,0.1757 -0.1337,0.324 V 7.5631 7.7486 H 63.363 62.2213 62.0358 V 7.5631 Z m 6.0334,-1.6299 h 1.1416 0.1856 v 0.1855 2.02 h 0.9637 c 0.2647,0 0.5109,0.021 0.7374,0.0626 0.2282,0.0419 0.4351,0.1055 0.6199,0.1899 l 1e-4,-3e-4 c 0.1848,0.0833 0.3462,0.1805 0.4828,0.2907 0.1402,0.1131 0.2554,0.2404 0.3446,0.3816 l 0.0036,0.005 c 0.0814,0.1395 0.1437,0.2864 0.1857,0.4391 h 2e-4 c 0.0421,0.1534 0.0634,0.3102 0.0634,0.4697 0,0.3065 -0.0573,0.5829 -0.172,0.828 -0.1144,0.245 -0.2855,0.4556 -0.5124,0.6311 -0.1005,0.0816 -0.2068,0.1501 -0.317,0.205 l -4e-4,-6e-4 c -0.1137,0.0568 -0.2326,0.1008 -0.3547,0.1316 v 2e-4 C 71.3209,7.6869 71.176,7.7102 71.0078,7.7256 70.8415,7.741 70.6595,7.7486 70.4623,7.7486 H 68.0692 67.8836 V 7.5631 2.0027 1.8172 Z m 4.045,5.5023 -8e-4,6e-4 z M 69.3964,5.3178 v 1.058 h 0.9327 c 0.3885,0 0.648,-0.0417 0.779,-0.1252 l -2e-4,-4e-4 C 71.1523,6.2218 71.187,6.1784 71.2105,6.1211 71.2395,6.0508 71.2541,5.9584 71.2541,5.8443 71.2541,5.7254 71.24,5.6284 71.2122,5.5547 71.1912,5.4989 71.1619,5.4568 71.1254,5.4295 71.0699,5.3957 70.9814,5.3688 70.8612,5.3499 70.7273,5.3286 70.5545,5.3178 70.3445,5.3178 Z M 73.833,1.8172 h 1.1417 0.1855 V 2.0027 3.976 h 1.8344 V 2.0027 1.8172 h 0.1855 1.1417 0.1855 V 2.0027 7.5631 7.7486 H 78.3218 77.1801 76.9946 V 7.5631 5.349 H 75.1602 V 7.5631 7.7486 H 74.9747 73.833 73.6475 V 7.5631 2.0027 1.8172 Z m 5.6692,0 h 1.1417 0.1855 v 0.1855 2.02 h 0.9638 c 0.2647,0 0.5109,0.021 0.7374,0.0626 0.2282,0.0419 0.435,0.1055 0.6198,0.1899 l 2e-4,-3e-4 c 0.1848,0.0833 0.3462,0.1805 0.4827,0.2907 0.1402,0.1131 0.2555,0.2404 0.3447,0.3816 l 0.0035,0.005 c 0.0815,0.1395 0.1438,0.2864 0.1857,0.4391 h 2e-4 c 0.0421,0.1534 0.0634,0.3102 0.0634,0.4697 0,0.3065 -0.0573,0.5829 -0.1719,0.828 -0.1145,0.245 -0.2855,0.4556 -0.5124,0.6311 -0.1006,0.0816 -0.2069,0.1501 -0.3171,0.205 l -3e-4,-6e-4 c -0.1138,0.0568 -0.2327,0.1008 -0.3548,0.1316 v 2e-4 c -0.1204,0.0306 -0.2652,0.0539 -0.4335,0.0693 -0.1662,0.0154 -0.3482,0.023 -0.5454,0.023 H 79.5022 79.3167 V 7.5631 2.0027 1.8172 Z m 4.045,5.5023 -7e-4,6e-4 z M 80.8294,5.3178 v 1.058 h 0.9328 c 0.3884,0 0.648,-0.0417 0.779,-0.1252 l -2e-4,-4e-4 c 0.0443,-0.0284 0.079,-0.0718 0.1026,-0.1291 0.0289,-0.0703 0.0436,-0.1627 0.0436,-0.2768 0,-0.1189 -0.0141,-0.2159 -0.042,-0.2896 C 82.6243,5.4989 82.595,5.4568 82.5584,5.4295 82.5029,5.3957 82.4144,5.3688 82.2942,5.3499 82.1603,5.3286 81.9876,5.3178 81.7776,5.3178 Z m 3.9469,2.2453 V 2.0027 1.8172 h 0.1855 1.1417 0.1855 v 0.1855 5.5604 0.1855 h -0.1855 -1.1417 -0.1855 z m 4.8685,-5.7567 c -0.4389,0 -0.7985,-0.1271 -1.0771,-0.3809 l -6e-4,6e-4 C 88.4237,1.2999 88.315,1.1556 88.2421,0.994 88.1692,0.8324 88.1325,0.6558 88.1325,0.4649 V 0.2794 h 0.1855 0.884 0.1855 v 0.1855 c 0,0.0223 0.0046,0.0421 0.0133,0.059 0.0112,0.0214 0.0299,0.0425 0.0555,0.0627 l 0.0015,8e-4 c 0.0299,0.0239 0.0619,0.0423 0.0952,0.054 0.0322,0.0113 0.0682,0.0172 0.1072,0.0172 0.0408,0 0.0777,-0.0056 0.11,-0.0163 0.0323,-0.0108 0.0653,-0.0288 0.0976,-0.0529 0.023,-0.0189 0.0399,-0.0386 0.0506,-0.0586 l -2e-4,-2e-4 c 0.0097,-0.0189 0.0147,-0.041 0.0147,-0.0657 V 0.2794 h 0.1855 0.8827 0.1855 v 0.1855 c 0,0.1894 -0.0373,0.3653 -0.1119,0.5273 C 91.0011,1.1523 90.8905,1.297 90.7436,1.4261 90.5987,1.5537 90.433,1.6494 90.2477,1.7127 90.065,1.775 89.8635,1.8064 89.6448,1.8064 Z m 2.3297,5.9422 H 90.895 90.7095 V 7.5631 4.3572 L 88.7317,7.6581 88.6773,7.7486 H 88.5731 87.5013 87.3158 V 7.5631 2.0027 1.8172 h 0.1855 1.0718 0.1855 v 0.1855 3.1947 l 1.9279,-3.2882 0.0538,-0.092 h 0.1055 1.1287 0.1855 v 0.1855 5.5604 0.1855 z m -68.3619,6.2925 v -2.9287 c 0,-0.2708 0.0516,-0.5146 0.1538,-0.73 0.1034,-0.2182 0.2579,-0.4048 0.4623,-0.5595 l 0.0037,-0.0022 c 0.0937,-0.0674 0.1919,-0.1243 0.2935,-0.17 l -2e-4,-3e-4 C 24.627,9.6049 24.7326,9.5702 24.8413,9.5476 24.9465,9.5257 25.0747,9.509 25.2251,9.4984 25.3734,9.488 25.5427,9.4825 25.732,9.4825 h 2.2987 0.1855 v 0.1855 4.3731 h 0.3763 0.1855 v 0.1856 1.0017 0.1855 H 28.5925 23.2856 23.1 v -0.1855 -1.0017 -0.1856 h 0.1856 z m 1.5205,0 h 1.5704 v -3.1702 h -0.868 c -0.1499,0 -0.2761,0.0098 -0.3777,0.0295 -0.0898,0.0172 -0.1598,0.0415 -0.2076,0.0723 l 2e-4,2e-4 c -0.0358,0.0237 -0.0637,0.0577 -0.0822,0.1011 v 7e-4 c -0.0232,0.054 -0.0351,0.1242 -0.0351,0.2099 z m 4.3576,-4.5586 h 2.4296 c 0.1925,0 0.3654,0.0055 0.5176,0.0159 0.1532,0.0106 0.2844,0.0273 0.3916,0.0492 h 7e-4 c 0.1084,0.0226 0.213,0.058 0.313,0.1048 0.0991,0.046 0.1929,0.1035 0.2812,0.1707 l 2e-4,-2e-4 c 0.2017,0.1525 0.3542,0.3386 0.4564,0.5571 0.1013,0.2163 0.1519,0.4608 0.1519,0.7337 0,0.461 -0.1569,0.8363 -0.4708,1.1257 0.1755,0.1106 0.3168,0.2479 0.423,0.4115 0.156,0.24 0.2343,0.5322 0.2343,0.8754 0,0.3065 -0.0574,0.5829 -0.172,0.828 -0.1145,0.2451 -0.2855,0.4556 -0.5124,0.6311 -0.1006,0.0816 -0.2069,0.1501 -0.317,0.205 l -4e-4,-6e-4 c -0.1137,0.0568 -0.2327,0.1008 -0.3547,0.1316 v 2e-4 c -0.1204,0.0306 -0.2653,0.0539 -0.4336,0.0693 -0.1662,0.0154 -0.3482,0.023 -0.5454,0.023 H 29.4907 29.3052 V 15.2284 9.668 9.4825 Z m 4.045,5.5024 -7e-4,5e-4 z m -2.7178,-4.1296 v 0.8328 h 0.9625 c 0.1656,0 0.3018,-0.0101 0.4077,-0.0295 0.0932,-0.0173 0.1614,-0.041 0.2043,-0.0705 l 0.0035,-0.003 c 0.0286,-0.0187 0.0514,-0.0492 0.0677,-0.0907 0.0221,-0.0564 0.0334,-0.1317 0.0334,-0.2254 0,-0.0883 -0.0115,-0.1601 -0.0339,-0.2143 v -7e-4 c -0.0173,-0.042 -0.0432,-0.0744 -0.0763,-0.0965 l -7e-4,-0.0015 c -0.0443,-0.03 -0.1117,-0.054 -0.2015,-0.0712 h -5e-4 C 32.083,10.8651 31.9559,10.8553 31.8038,10.8553 Z m 0,2.1278 v 1.058 h 0.9328 c 0.3885,0 0.648,-0.0417 0.779,-0.1252 l -2e-4,-4e-4 c 0.0443,-0.0283 0.079,-0.0718 0.1026,-0.1291 0.0289,-0.0703 0.0436,-0.1627 0.0436,-0.2768 0,-0.1189 -0.0141,-0.2159 -0.0419,-0.2896 -0.021,-0.0558 -0.0503,-0.0979 -0.0869,-0.1252 -0.0556,-0.0337 -0.1439,-0.0608 -0.2636,-0.0796 h -7e-4 c -0.1342,-0.0213 -0.3072,-0.0321 -0.5178,-0.0321 z m 3.8525,-0.5116 c 0,-0.6137 0.1181,-1.1543 0.3541,-1.6236 l 4e-4,1e-4 c 0.1159,-0.2322 0.259,-0.44 0.4274,-0.6222 0.1685,-0.182 0.3633,-0.3385 0.5829,-0.4693 L 36.0374,9.755 c 0.221,-0.1275 0.4572,-0.2234 0.7074,-0.2864 0.2501,-0.0631 0.5156,-0.0948 0.7955,-0.0948 0.2043,0 0.4028,0.0181 0.5944,0.0539 0.1898,0.0357 0.3727,0.0895 0.5482,0.1611 h 8e-4 c 0.1756,0.0725 0.3381,0.1597 0.4864,0.2612 0.1484,0.1014 0.2849,0.2192 0.409,0.3532 0.123,0.1315 0.2327,0.2762 0.328,0.4326 0.0954,0.1568 0.1783,0.3276 0.2477,0.5109 l 7e-4,0.003 c 0.0659,0.184 0.1156,0.3783 0.1483,0.5821 0.0328,0.2047 0.0495,0.4167 0.0495,0.6362 0,0.6005 -0.1152,1.1351 -0.3451,1.606 l -3e-4,-2e-4 c -0.1158,0.2393 -0.2568,0.4538 -0.4221,0.6419 -0.1658,0.1888 -0.3567,0.3517 -0.5712,0.4871 -0.2167,0.1368 -0.4493,0.2403 -0.6964,0.3089 -0.2466,0.0685 -0.5061,0.1032 -0.7779,0.1032 -0.2796,0 -0.5449,-0.0331 -0.7949,-0.0985 h -8e-4 c -0.2512,-0.0659 -0.4857,-0.1648 -0.7031,-0.2959 l 2e-4,-2e-4 c -0.2176,-0.1271 -0.412,-0.2805 -0.5818,-0.4597 l -3e-4,3e-4 C 35.2898,14.4817 35.1447,14.2767 35.0253,14.0461 34.9071,13.8181 34.818,13.571 34.7589,13.3063 34.7,13.0432 34.6704,12.7646 34.6704,12.4715 Z m 1.5514,-0.0892 c 0,0.2541 0.0277,0.4875 0.0826,0.6993 0.0547,0.2114 0.1365,0.4039 0.2443,0.5761 h 8e-4 c 0.0988,0.159 0.2259,0.2777 0.3805,0.3558 0.1589,0.0803 0.3519,0.1208 0.5778,0.1208 0.2008,0 0.3787,-0.0379 0.5334,-0.113 0.1542,-0.0748 0.2896,-0.1885 0.4055,-0.3404 l 2e-4,10e-5 c 0.1167,-0.1562 0.205,-0.3394 0.264,-0.5491 0.0605,-0.2146 0.0909,-0.4588 0.0909,-0.7316 0,-0.2703 -0.0297,-0.51 -0.089,-0.7184 -0.0573,-0.2012 -0.1423,-0.3736 -0.2538,-0.5157 l -2e-4,2e-4 c -0.1128,-0.1375 -0.2458,-0.2406 -0.3987,-0.3085 -0.1545,-0.069 -0.3335,-0.1035 -0.5367,-0.1035 -0.1282,0 -0.2469,0.0157 -0.3556,0.0471 v 7e-4 c -0.1104,0.0316 -0.2134,0.0789 -0.3078,0.141 l -7e-4,8e-4 c -0.0952,0.0615 -0.1802,0.1372 -0.2536,0.2254 v 7e-4 c -0.075,0.0898 -0.1393,0.1939 -0.1922,0.3109 -0.0564,0.1252 -0.1008,0.2633 -0.1327,0.4132 -0.0321,0.1515 -0.0519,0.3144 -0.0593,0.4881 z m 4.9647,-2.8998 h 2.2896 c 0.2905,0 0.5449,0.0254 0.7614,0.076 0.2274,0.0531 0.4159,0.1353 0.5638,0.2456 l -4e-4,4e-4 c 0.2521,0.1816 0.4419,0.4111 0.569,0.6877 0.1252,0.2729 0.1881,0.5889 0.1881,0.9463 0,0.3555 -0.0598,0.6716 -0.179,0.9471 -0.1216,0.2801 -0.3032,0.5157 -0.5445,0.7053 l -0.0039,0.0032 -0.0099,0.0063 c -0.0936,0.061 -0.1896,0.1124 -0.2866,0.1541 h -7e-4 c -0.1,0.0429 -0.2024,0.0769 -0.3065,0.1015 v -2e-4 c -0.1052,0.0281 -0.2256,0.0496 -0.3601,0.064 -0.1343,0.0143 -0.2803,0.0216 -0.436,0.0216 h -0.9172 v 1.787 0.1855 H 42.3281 41.1865 41.0009 V 15.2284 9.668 9.4825 Z m 1.3271,1.3728 v 1.2132 h 0.7089 c 0.3082,0 0.52,-0.0458 0.6341,-0.1372 v -8e-4 c 0.0495,-0.0393 0.0876,-0.0929 0.1134,-0.1599 0.0293,-0.0759 0.0441,-0.1714 0.0441,-0.2853 0,-0.1213 -0.0154,-0.2234 -0.0453,-0.3059 h -1e-4 c -0.0269,-0.0739 -0.0663,-0.1327 -0.1171,-0.1761 l -7e-4,-7e-4 C 43.7984,10.9573 43.7238,10.9219 43.628,10.897 43.5214,10.8694 43.3884,10.8553 43.2303,10.8553 Z" />
  </g>
</svg>
