<?xml version="1.0" encoding="UTF-8" standalone="no"?>
<svg
   xmlns:dc="http://purl.org/dc/elements/1.1/"
   xmlns:cc="http://creativecommons.org/ns#"
   xmlns:rdf="http://www.w3.org/1999/02/22-rdf-syntax-ns#"
   xmlns:svg="http://www.w3.org/2000/svg"
   xmlns="http://www.w3.org/2000/svg"
   viewBox="0 0 92.160004 16.559999"
   id="svg14"
   height="16.559999"
   width="92.160004"
   version="1.1">
  <metadata
     id="metadata20">
    <rdf:RDF>
      <cc:Work
         rdf:about="">
        <dc:format>image/svg+xml</dc:format>
        <dc:type
           rdf:resource="http://purl.org/dc/dcmitype/StillImage" />
      </cc:Work>
    </rdf:RDF>
  </metadata>
  <defs
     id="defs18" />
  <g
     id="Layer1000">
    <g
       id="Layer1001">
      <path
         id="path2"
         style="fill:#1b1918;fill-rule:evenodd"
         d="m 15.8593,9.3607 c -0.3484,0.163 -0.707,0.4111 -1.0483,0.5272 -0.0509,0.0173 0.9203,0.2825 1.0711,0.6824 0.4478,1.1885 2.1338,1.4159 2.9402,1.8611 1.1416,0.6301 0.9579,0.5617 0.2279,-0.4963 -0.3182,-0.4613 -0.2734,-1.0146 -0.2734,-1.6749 0,-0.7571 1.4162,-0.1769 1.3674,-0.8066 -0.0031,-0.0403 -0.4723,-0.2481 -0.5241,-0.2481 -0.0969,0 2.1492,-1.267 1.0255,-1.2406 -1.3419,0.0315 -0.5563,0.4289 0.0229,-1.1477 0.3927,-1.0685 -1.7703,0.5393 -2.1083,0.8841 -0.5064,0.5169 -0.3691,0.8064 -0.5811,1.3338 -0.527,1.3104 -0.17,-0.0157 -2.1198,0.3256 z" />
      <path
         id="path4"
         style="fill:#1b1918;fill-rule:evenodd"
         d="m 5.6647,0.3889 c 0,0 -0.0514,-0.0859 -0.223,-0.06 -0.1716,0.0257 -0.532,0.0257 -0.6263,0.0257 -0.0943,0 -0.3089,-0.0516 -0.1287,-0.1118 0.1803,-0.06 0.5919,-0.103 0.695,-0.1203 0.103,-0.0172 1.4242,-0.1718 1.613,-0.1288 0.1887,0.0429 0.2916,0.1375 0.2916,0.1375 0,0 1.1239,-0.0173 1.2612,-0.0173 0.1373,0 0.4032,-0.0257 0.532,-0.0516 0.1287,-0.0257 0.3432,-0.0602 0.5232,-0.0602 0.1805,0 1.6989,0.0259 2.1451,0.1548 0.4461,0.1291 0.7809,0.5502 0.8836,0.7134 0.103,0.1634 0.4119,0.55 0.4205,0.7478 0.0086,0.1977 0.0427,0.2407 0.2145,0.5416 0.1716,0.3007 1.0858,2.2692 1.2404,2.5958 0.1543,0.3266 0.7037,1.4783 0.9093,1.5642 0.206,0.0862 0.6351,0.4987 0.6351,0.4987 0,0 -0.3603,-0.6017 -0.2232,-0.6705 0.1372,-0.0687 0.3432,0.3782 0.5148,0.6532 0.1718,0.2752 0.652,0.7909 0.6863,0.9628 0.0343,0.1718 0,0.3439 -0.1716,0.3439 -0.1716,0 -0.892,0.1718 -1.1495,0.1718 -0.2573,0 -1.2012,-0.1375 -1.2012,-0.1375 0,0 -0.3432,0.9109 -0.3432,1.5298 0,0.6189 -0.1716,1.2208 -0.2232,1.4612 -0.0514,0.2407 -0.0686,0.8769 -0.0686,0.8769 0,0 0.1716,-0.1375 0.3434,-0.0516 0.1714,0.0859 0.2745,0.2407 0.0341,0.3094 -0.2402,0.0688 -0.4975,0.6534 -0.6521,0.8941 -0.1543,0.2405 -0.3432,0.2921 -0.3602,0.2062 -0.0173,-0.086 0.103,-0.3783 -0.0343,-0.361 -0.1373,0.0171 -1.4757,0.8939 -1.5273,1.0142 -0.0513,0.1202 -0.2232,0.2922 -0.3945,0.5673 -0.1716,0.275 -0.4635,0.6189 -0.5664,0.5673 -0.103,-0.0516 -0.0857,-0.4125 -0.0857,-0.4125 l -0.5664,0.2234 c 0,0 -0.3602,0.2234 -0.5491,0.2234 -0.1886,0 -1.3783,-0.5561 -1.7042,-0.5218 -0.354,0.0371 0.4417,1.8112 -0.6264,1.8112 -0.3262,0 -0.6378,0.1718 -0.7751,0.0516 C 6.2703,16.4109 5.8585,15.7918 5.9271,15.3793 5.9958,14.9668 5.8585,14.2963 5.8242,14.1415 5.7899,13.9869 5.8928,13.9354 5.6183,13.7635 5.3437,13.5915 4.8803,13.4369 4.606,13.2821 4.3312,13.1274 3.8853,13.0585 3.6791,12.9039 3.4732,12.7491 2.9414,12.8007 3.0443,12.6632 c 0.103,-0.1375 0.4805,-0.1891 0.6348,-0.1891 0.1546,0 0.3948,-0.2234 0.2575,-0.2922 -0.1373,-0.0687 -0.3432,-0.5673 -0.3432,-0.5673 0,0 0.1889,-1.719 0.0857,-2.1661 C 3.5762,9.0017 3.5764,8.5376 3.3702,8.3139 3.1643,8.0905 2.3237,8.0732 2.1005,7.8841 1.8775,7.695 0.7793,7.6779 0.4705,7.5404 0.1616,7.4027 -0.0786,7.2998 0.0243,7.2309 0.1273,7.1622 0.5048,7.0763 0.6764,7.1107 0.848,7.145 0.745,6.7668 0.8993,6.5777 1.0539,6.3886 1.8089,5.6149 1.9119,5.5117 2.0148,5.4087 2.8041,4.9962 2.5809,4.979 2.358,4.9617 2.0491,4.996 2.2034,4.8758 2.358,4.7555 2.8384,4.7212 2.9414,4.4289 3.0443,4.1366 3.765,3.3459 3.9882,3.105 4.2112,2.8645 4.4857,2.3831 4.3828,2.3315 4.2798,2.2799 4.0223,2.2456 4.1596,2.1597 4.2969,2.0738 4.6401,2.0736 4.7432,1.8158 4.846,1.5581 5.0519,1.2658 5.0176,1.1799 4.9832,1.0937 5.2751,0.8017 5.3094,0.6812 5.3437,0.5607 5.6647,0.3889 5.6647,0.3889 Z m 0.2059,0.0946 c 0,0 1.2955,-0.2407 1.433,-0.2321 0.1373,0.0086 1.2869,0.0859 1.2869,0.0859 0,0 0.8836,-0.0513 0.9522,-0.0513 0.0687,0 0.9266,-0.0087 0.9866,-0.0087 0.06,0 1.0726,0.0171 1.2614,0.1546 0.1887,0.1375 0.3259,0.1977 0.4116,0.447 0.0859,0.2494 0.8118,2.1747 1.2063,2.5013 0.3948,0.3266 0.7034,1.0487 0.858,1.2378 0.1543,0.1891 0.4632,1.083 0.5318,1.2205 0.0686,0.1375 0.3605,0.6017 0.3605,0.7392 0,0.1375 0.1543,0.4984 0.3088,0.7048 0.1544,0.2063 -0.1372,0.3266 -0.2575,0.3266 -0.12,0 -0.6004,0.1204 -0.6004,0.1204 0,0 -0.1544,-0.3782 -0.1373,-0.4986 C 14.4895,7.1107 14.6611,6.4918 14.5068,6.337 14.3522,6.1822 14.0779,6.0792 13.889,5.7869 13.7002,5.4947 13.0824,3.913 12.8595,3.535 12.6366,3.1568 12.3618,2.6927 12.2588,2.4863 12.1559,2.2799 11.8986,1.6954 11.7786,1.5065 11.6584,1.3174 11.4695,1.0594 11.3495,1.0424 c -0.12,-0.0173 -0.2573,0.017 -0.2573,0.1545 0,0.1375 -0.2059,0.2237 -0.4291,0.3266 C 10.4399,1.6267 10.114,2.2629 10.0454,2.4174 9.9767,2.5722 9.2047,4.5491 9.0844,4.8415 8.9642,5.1337 8.5183,5.9933 8.2781,6.3197 8.0376,6.6463 7.8319,7.4029 7.5744,7.5748 7.3169,7.7466 6.4419,7.8841 6.2017,7.8325 5.9615,7.7809 5.1378,7.5748 5.0176,7.4888 4.8976,7.4027 4.3657,7.2482 4.3657,7.2482 c 0,0 -0.6523,-0.2578 -1.0298,-0.2578 C 2.9584,6.9904 2.238,6.887 2.0321,6.7495 1.8259,6.612 1.5687,6.5261 1.6373,6.337 1.7059,6.1479 2.7525,4.9101 2.993,4.7212 3.233,4.5319 3.7478,3.6209 3.9366,3.4834 4.1253,3.3459 4.8117,2.2456 4.9319,2.177 5.5246,1.837 4.7806,1.8279 5.4637,0.8014 5.5324,0.6982 5.8706,0.4835 5.8706,0.4835 Z m 5.2247,2.0392 c 0,0 0.9266,1.75 1.0638,2.1273 0.1373,0.3775 0.7891,1.2012 0.7891,1.2012 l 0.7207,0.6861 c 0,0 0.3086,0.755 0.24,1.0295 -0.0684,0.2743 -0.3773,1.1323 -0.3086,1.3725 0.0686,0.2403 -0.4462,3.0196 -0.5148,3.1912 -0.0686,0.1716 -0.7029,0.6873 -0.7973,0.7648 -0.0943,0.0773 -0.5061,0.2577 -0.5661,0.3523 -0.06,0.0948 -0.2062,0.2666 -0.3005,0.2923 -0.0943,0.0259 -0.8493,0.49 -0.9952,0.49 -0.1457,0 -0.8237,-0.1116 -0.935,-0.3695 C 9.3798,13.4024 8.9166,12.7235 8.8393,12.4828 8.762,12.2421 8.5818,11.5286 8.5561,11.3568 8.5305,11.1847 8.5218,10.9956 8.3589,11.0559 8.1959,11.1161 8.11,11.2106 8.11,11.3052 c 0,0.0946 0.2745,1.0571 0.2916,1.2205 0.0173,0.1632 0.1545,0.6017 0.1632,0.6705 0.0084,0.0687 0.017,0.3267 -0.0516,0.3696 -0.0687,0.043 -0.3946,0.0516 -0.6091,0.0516 -0.2146,0 -1.8789,-0.5246 -1.9648,-0.5846 C 5.8536,12.9726 5.4674,12.8694 5.3988,12.8007 5.3302,12.7319 5.2188,12.6719 5.1156,12.56 5.0126,12.4482 4.9183,11.4427 4.9097,11.2879 4.9013,11.1331 4.764,10.5145 4.6697,10.437 4.5751,10.3597 4.4636,10.3338 4.4808,10.4456 c 0.0171,0.1118 0.1116,0.9026 0.1287,1.0744 0.0172,0.1721 0.1288,0.6878 0.0429,0.7307 -0.0859,0.043 -0.3602,-0.2579 -0.3602,-0.4039 0,-0.1463 -0.2013,-1.2637 -0.0983,-1.573 C 4.2969,9.9642 4.2282,8.7953 4.1769,8.6578 4.1253,8.5203 4.1082,8.1937 4.1082,8.1937 c 0,0 0.3089,0.5157 0.3432,0.6705 C 4.4857,9.0187 4.3141,9.4655 4.4685,9.4485 4.623,9.4315 4.726,9.1219 4.7432,8.8642 4.7603,8.6062 4.6573,8.2796 4.6916,8.1937 4.726,8.1078 4.9832,8.1594 5.0862,8.228 c 0.1032,0.0689 1.2185,0.0346 1.39,0.1718 0.1716,0.1375 0.7894,0.3439 0.8923,0.3439 0.103,0 0.3089,-0.2234 0.3432,-0.4811 C 7.746,8.0046 8.8785,6.1995 9.0674,5.8728 9.256,5.5462 9.8051,4.2396 10.0454,3.9475 10.2856,3.6552 10.6631,2.9504 10.7661,2.8472 10.869,2.744 11.0953,2.5227 11.0953,2.5227 Z m 1.2151,6.6165 c 0,0 -0.0686,0.2923 -0.0686,0.6359 0,0.3439 -0.0857,0.791 -0.2746,1.066 -0.1886,0.275 -0.1716,0.4641 -0.7207,0.4641 -0.5491,0 -0.8923,-0.1205 -1.0123,-0.3439 C 10.114,10.7379 9.9597,9.861 10.0797,9.5687 c 0.12,-0.292 0.5661,-1.0314 0.9093,-1.0657 0.3432,-0.0343 0.7896,-0.0686 0.8923,0.0343 0.103,0.1032 0.4291,0.6019 0.4291,0.6019 z m -5.8342,4.418 c 0,0 0.9266,0.1204 1.1669,0.1891 0.2402,0.0688 0.6863,0.3609 0.6863,0.3609 l 0.2746,0.1375 c 0,0 0.0686,0.2579 -0.4805,0.1204 C 7.5744,14.2274 7.111,13.8838 6.9737,13.8665 6.8365,13.8494 6.4762,13.5572 6.4762,13.5572 Z m 7.224,-1.2033 c 0,0 -0.3259,0.3436 -0.4118,0.2577 -0.0857,-0.0859 0.1375,-0.3954 0.1375,-0.3954 z m 2.4539,-4.7791 c 0,0 0.3605,0.3093 0.4632,0.3093 0.103,0 0.0859,-0.3093 0,-0.3437 -0.0857,-0.0345 -0.4632,0.0344 -0.4632,0.0344 z M 1.9842,7.4975 c 0.0687,0 1.1925,0.1375 1.2525,0.1632 0.06,0.0259 0.3862,0.1288 0.3862,0.1804 0,0.0516 0,0.2494 -0.1459,0.1805 C 3.3311,7.953 2.9365,7.7982 2.7392,7.7982 2.5417,7.7982 2.1729,7.7466 2.1301,7.695 2.0872,7.6434 1.9842,7.4975 1.9842,7.4975 Z" />
      <path
         id="path6"
         style="fill:#ffd400;fill-rule:evenodd"
         d="m 5.8706,0.4835 c 0,0 -0.3382,0.215 -0.4069,0.3179 C 4.7804,1.8284 5.5253,1.837 4.9319,2.1767 4.8117,2.2456 4.1253,3.3459 3.9366,3.4834 3.7478,3.6209 3.233,4.5319 2.9928,4.721 2.7525,4.9101 1.7059,6.1479 1.6373,6.337 1.5687,6.5261 1.8259,6.612 2.0321,6.7495 2.238,6.887 2.9584,6.9902 3.3359,6.9902 c 0.3775,0 1.0298,0.258 1.0298,0.258 0,0 0.5319,0.1545 0.6519,0.2406 0.1202,0.086 0.9439,0.2921 1.1841,0.3437 C 6.4419,7.8841 7.3169,7.7466 7.5744,7.5748 7.8319,7.4029 8.0376,6.6466 8.2781,6.3197 8.5183,5.9931 8.9642,5.1337 9.0844,4.8415 9.2047,4.5491 9.9767,2.5722 10.0454,2.4174 10.114,2.2629 10.4399,1.6267 10.6631,1.5235 10.8863,1.4206 11.092,1.3344 11.092,1.1969 c 0,-0.1375 0.1373,-0.1718 0.2575,-0.1548 0.12,0.0173 0.3089,0.2753 0.4289,0.4644 0.1202,0.1889 0.3775,0.7734 0.4804,0.9798 0.1032,0.2064 0.3778,0.6705 0.6007,1.0487 0.2229,0.378 0.8407,1.9597 1.0295,2.2519 0.1889,0.2923 0.4632,0.3953 0.6178,0.5501 0.1543,0.1548 -0.0173,0.7737 -0.0343,0.8939 -0.0173,0.1204 0.1373,0.4986 0.1373,0.4986 0,0 0.4804,-0.1204 0.6004,-0.1204 0.1203,0 0.4119,-0.1203 0.2575,-0.3266 C 15.3134,7.0761 15.1589,6.7152 15.1589,6.5777 15.1589,6.4402 14.867,5.976 14.7984,5.8385 14.7298,5.701 14.4209,4.8071 14.2666,4.618 14.1122,4.4289 13.8034,3.7068 13.4086,3.3802 13.0141,3.0536 12.2882,1.1283 12.2026,0.8789 12.1166,0.6296 11.9794,0.5694 11.7907,0.4319 11.6019,0.2944 10.5896,0.2773 10.5293,0.2773 L 9.5427,0.286 c -0.0686,0 -0.9522,0.0513 -0.9522,0.0513 0,0 -1.1496,-0.0773 -1.2871,-0.0859 C 7.1661,0.243 5.8706,0.4835 5.8706,0.4835 Z" />
      <path
         id="path8"
         style="fill:#ffffff;fill-rule:evenodd"
         d="M 9.0674,5.8728 C 8.8785,6.1995 7.746,8.0046 7.7117,8.2623 7.6774,8.5203 7.4715,8.7437 7.3685,8.7437 7.2656,8.7437 6.6478,8.5373 6.4762,8.3998 6.3047,8.2626 5.1894,8.2969 5.0862,8.228 4.9832,8.1594 4.726,8.1078 4.6916,8.1937 4.6573,8.2796 4.7603,8.6062 4.743,8.8642 4.726,9.1219 4.623,9.4315 4.4685,9.4485 4.3141,9.4655 4.4857,9.0187 4.4514,8.8642 4.4171,8.7094 4.1082,8.1937 4.1082,8.1937 c 0,0 0.0171,0.3266 0.0687,0.4641 0.0513,0.1375 0.12,1.3064 0.017,1.616 -0.103,0.3093 0.0983,1.4267 0.0983,1.5728 0,0.1462 0.2743,0.4471 0.3602,0.4041 C 4.7383,12.2078 4.6267,11.6921 4.6095,11.52 4.5924,11.3482 4.4979,10.5574 4.4808,10.4456 4.4636,10.3338 4.5751,10.3597 4.6697,10.437 c 0.0943,0.0775 0.2316,0.6961 0.24,0.8509 0.0086,0.1548 0.1029,1.1603 0.2059,1.2721 0.1032,0.1119 0.2146,0.1721 0.2832,0.2407 0.0686,0.0687 0.4548,0.1719 0.5405,0.2321 0.0859,0.0602 1.7502,0.5846 1.9648,0.5846 0.2145,0 0.5404,-0.0086 0.6091,-0.0516 C 8.5818,13.5229 8.5734,13.2649 8.5648,13.1962 8.5561,13.1274 8.4189,12.6889 8.4016,12.5257 8.3845,12.3623 8.11,11.3998 8.11,11.3052 c 0,-0.0946 0.0859,-0.1891 0.2489,-0.2493 0.1629,-0.0603 0.1716,0.1288 0.1972,0.3009 0.0257,0.1718 0.2059,0.8853 0.2832,1.126 0.0773,0.2407 0.5405,0.9196 0.6521,1.1776 0.1113,0.2579 0.7893,0.3695 0.935,0.3695 0.1459,0 0.9009,-0.4641 0.9952,-0.49 0.0943,-0.0257 0.2403,-0.1975 0.3005,-0.2923 0.06,-0.0946 0.4718,-0.275 0.5661,-0.3523 0.0944,-0.0773 0.7287,-0.5932 0.7973,-0.7648 0.0686,-0.1716 0.5834,-2.9509 0.5148,-3.1912 C 13.5316,8.6991 13.8405,7.8411 13.9091,7.5668 13.9778,7.2923 13.6689,6.5373 13.6689,6.5373 L 12.9482,5.8512 c 0,0 -0.6518,-0.8237 -0.7891,-1.2009 -0.1372,-0.3776 -1.0638,-2.1276 -1.0638,-2.1276 0,0 -0.2263,0.2213 -0.3292,0.3245 -0.103,0.1032 -0.4805,0.808 -0.7207,1.1003 C 9.8051,4.2396 9.256,5.5462 9.0674,5.8728 Z m 1.0123,3.6959 c 0.12,-0.292 0.5661,-1.0314 0.9093,-1.0657 0.3432,-0.0343 0.7896,-0.0686 0.8923,0.0343 0.103,0.1032 0.4291,0.6019 0.4291,0.6019 0,0 -0.0686,0.2923 -0.0686,0.6359 0,0.3439 -0.0857,0.791 -0.2746,1.066 -0.1888,0.275 -0.1716,0.4641 -0.7207,0.4641 -0.5491,0 -0.8923,-0.1205 -1.0123,-0.3439 C 10.114,10.7379 9.9595,9.861 10.0797,9.5687 Z" />
    </g>
  </g>
</svg>
